<?xml version="1.0" encoding="UTF-8"?>
<svg xmlns="http://www.w3.org/2000/svg" xmlns:xlink="http://www.w3.org/1999/xlink" viewBox="0 0 594.46 1022.49">
  <defs>
    <style>
      .cls-1 {
        fill: url(#radial-gradient-14);
      }

      .cls-1, .cls-2, .cls-3, .cls-4, .cls-5, .cls-6 {
        mix-blend-mode: screen;
      }

      .cls-7 {
        fill: url(#radial-gradient-7);
      }

      .cls-7, .cls-8, .cls-9, .cls-10 {
        mix-blend-mode: color-dodge;
      }

      .cls-11 {
        fill: url(#radial-gradient-4);
      }

      .cls-12 {
        isolation: isolate;
      }

      .cls-2 {
        fill: url(#radial-gradient-5);
      }

      .cls-3 {
        fill: url(#radial-gradient-13);
      }

      .cls-13 {
        fill: url(#radial-gradient);
      }

      .cls-4 {
        fill: url(#radial-gradient-10);
      }

      .cls-5 {
        fill: url(#radial-gradient-12);
      }

      .cls-14 {
        fill: #dbdadf;
      }

      .cls-15 {
        clip-path: url(#clippath);
      }

      .cls-16 {
        fill: url(#radial-gradient-2);
      }

      .cls-17 {
        fill: none;
      }

      .cls-8 {
        fill: url(#radial-gradient-6);
      }

      .cls-18 {
        fill: url(#radial-gradient-3);
      }

      .cls-9 {
        fill: url(#radial-gradient-8);
      }

      .cls-10 {
        fill: url(#radial-gradient-9);
      }

      .cls-19 {
        fill: #90766d;
      }

      .cls-20 {
        fill: url(#linear-gradient);
      }

      .cls-6 {
        fill: url(#radial-gradient-11);
      }

      .cls-21 {
        fill: #6f5c9b;
      }
    </style>
    <linearGradient id="linear-gradient" x1="362.02" y1="321.9" x2="369.35" y2="348.07" gradientUnits="userSpaceOnUse">
      <stop offset="0" stop-color="#804c00"/>
      <stop offset=".2" stop-color="#f9e785"/>
      <stop offset=".2" stop-color="#f5e382"/>
      <stop offset=".2" stop-color="#ccba68"/>
      <stop offset=".21" stop-color="#a89651"/>
      <stop offset=".21" stop-color="#88753c"/>
      <stop offset=".22" stop-color="#6d5a2b"/>
      <stop offset=".22" stop-color="#58441c"/>
      <stop offset=".23" stop-color="#473312"/>
      <stop offset=".24" stop-color="#3b270a"/>
      <stop offset=".26" stop-color="#342006"/>
      <stop offset=".29" stop-color="#331f05"/>
      <stop offset=".48" stop-color="#c48f1d"/>
      <stop offset=".53" stop-color="#c5901f"/>
      <stop offset=".56" stop-color="#c89727"/>
      <stop offset=".58" stop-color="#cfa234"/>
      <stop offset=".6" stop-color="#d8b248"/>
      <stop offset=".62" stop-color="#e3c661"/>
      <stop offset=".64" stop-color="#f1df7f"/>
      <stop offset=".65" stop-color="#fff69c"/>
      <stop offset=".69" stop-color="#fdf49a"/>
      <stop offset=".7" stop-color="#f6ed95"/>
      <stop offset=".71" stop-color="#ebe18d"/>
      <stop offset=".72" stop-color="#dbd081"/>
      <stop offset=".73" stop-color="#c6ba72"/>
      <stop offset=".73" stop-color="#ac9f5f"/>
      <stop offset=".74" stop-color="#8e7e48"/>
      <stop offset=".74" stop-color="#6a592d"/>
      <stop offset=".75" stop-color="#433011"/>
      <stop offset=".75" stop-color="#331f05"/>
      <stop offset=".75" stop-color="#402809"/>
      <stop offset=".76" stop-color="#603d13"/>
      <stop offset=".77" stop-color="#7b501b"/>
      <stop offset=".78" stop-color="#915f22"/>
      <stop offset=".8" stop-color="#a26b27"/>
      <stop offset=".81" stop-color="#ae732b"/>
      <stop offset=".84" stop-color="#b5772d"/>
      <stop offset=".9" stop-color="#b7792e"/>
      <stop offset="1" stop-color="#f9e785"/>
    </linearGradient>
    <radialGradient id="radial-gradient" cx="246.27" cy="373.29" fx="246.27" fy="373.29" r="28.47" gradientTransform="translate(534.71 197.24) rotate(105.39) scale(1 .62)" gradientUnits="userSpaceOnUse">
      <stop offset=".02" stop-color="#804c00"/>
      <stop offset=".2" stop-color="#f9e785"/>
      <stop offset=".2" stop-color="#f5e382"/>
      <stop offset=".2" stop-color="#ccba68"/>
      <stop offset=".21" stop-color="#a89651"/>
      <stop offset=".21" stop-color="#88753c"/>
      <stop offset=".22" stop-color="#6d5a2b"/>
      <stop offset=".22" stop-color="#58441c"/>
      <stop offset=".23" stop-color="#473312"/>
      <stop offset=".24" stop-color="#3b270a"/>
      <stop offset=".26" stop-color="#342006"/>
      <stop offset=".29" stop-color="#331f05"/>
      <stop offset=".48" stop-color="#c48f1d"/>
      <stop offset=".53" stop-color="#c5901f"/>
      <stop offset=".56" stop-color="#c89727"/>
      <stop offset=".58" stop-color="#cfa234"/>
      <stop offset=".6" stop-color="#d8b248"/>
      <stop offset=".62" stop-color="#e3c661"/>
      <stop offset=".64" stop-color="#f1df7f"/>
      <stop offset=".65" stop-color="#fff69c"/>
      <stop offset=".69" stop-color="#fdf49a"/>
      <stop offset=".7" stop-color="#f6ed95"/>
      <stop offset=".71" stop-color="#ebe18d"/>
      <stop offset=".72" stop-color="#dbd081"/>
      <stop offset=".73" stop-color="#c6ba72"/>
      <stop offset=".73" stop-color="#ac9f5f"/>
      <stop offset=".74" stop-color="#8e7e48"/>
      <stop offset=".74" stop-color="#6a592d"/>
      <stop offset=".75" stop-color="#433011"/>
      <stop offset=".75" stop-color="#331f05"/>
      <stop offset=".75" stop-color="#402809"/>
      <stop offset=".76" stop-color="#603d13"/>
      <stop offset=".77" stop-color="#7b501b"/>
      <stop offset=".78" stop-color="#915f22"/>
      <stop offset=".8" stop-color="#a26b27"/>
      <stop offset=".81" stop-color="#ae732b"/>
      <stop offset=".84" stop-color="#b5772d"/>
      <stop offset=".9" stop-color="#b7792e"/>
      <stop offset="1" stop-color="#f9e785"/>
    </radialGradient>
    <radialGradient id="radial-gradient-2" cx="266.31" cy="388.77" fx="266.31" fy="388.77" r="23.45" gradientTransform="translate(552.25 201.18) rotate(107.88) scale(1 .55)" xlink:href="#radial-gradient"/>
    <radialGradient id="radial-gradient-3" cx="266.98" cy="390.76" fx="266.98" fy="390.76" r="19.01" gradientTransform="translate(0 -390.76) scale(1 2)" gradientUnits="userSpaceOnUse">
      <stop offset=".02" stop-color="#804c00"/>
      <stop offset=".2" stop-color="#f9e785"/>
      <stop offset=".2" stop-color="#efd772"/>
      <stop offset=".22" stop-color="#e2c158"/>
      <stop offset=".23" stop-color="#d7ae42"/>
      <stop offset=".25" stop-color="#cea031"/>
      <stop offset=".27" stop-color="#c89625"/>
      <stop offset=".3" stop-color="#c4901e"/>
      <stop offset=".38" stop-color="#c48f1d"/>
      <stop offset=".47" stop-color="#c5901f"/>
      <stop offset=".51" stop-color="#c89727"/>
      <stop offset=".55" stop-color="#cfa234"/>
      <stop offset=".58" stop-color="#d8b248"/>
      <stop offset=".6" stop-color="#e3c661"/>
      <stop offset=".63" stop-color="#f1df7f"/>
      <stop offset=".65" stop-color="#fff69c"/>
      <stop offset=".76" stop-color="#fdf49a"/>
      <stop offset=".79" stop-color="#faed94"/>
      <stop offset=".82" stop-color="#f3e189"/>
      <stop offset=".84" stop-color="#e9d07b"/>
      <stop offset=".86" stop-color="#dcba67"/>
      <stop offset=".88" stop-color="#cd9f4f"/>
      <stop offset=".9" stop-color="#bb8034"/>
      <stop offset=".9" stop-color="#b7792e"/>
      <stop offset="1" stop-color="#f9e785"/>
    </radialGradient>
    <radialGradient id="radial-gradient-4" cx="247.11" cy="374.26" fx="247.11" fy="374.26" r="21.44" gradientTransform="translate(536.35 197.58) rotate(105.39) scale(1 .62)" xlink:href="#radial-gradient-3"/>
    <clipPath id="clippath">
      <path class="cls-17" d="m367.21,328.51c-6.57,0-11.89,5.32-11.89,11.89,0,1.32.22,2.58.62,3.76,6.21-2.46,13.63-4.99,22.52-7.6-1.6-4.68-6.02-8.06-11.25-8.06Z"/>
    </clipPath>
    <radialGradient id="radial-gradient-5" cx="2144.73" cy="13147.04" fx="2144.73" fy="13147.04" r="10.31" gradientTransform="translate(-3494.07 -1585.22) scale(1.8 .15)" gradientUnits="userSpaceOnUse">
      <stop offset="0" stop-color="#ffae00"/>
      <stop offset=".07" stop-color="#d69200"/>
      <stop offset=".16" stop-color="#a57000"/>
      <stop offset=".26" stop-color="#785200"/>
      <stop offset=".36" stop-color="#533800"/>
      <stop offset=".47" stop-color="#352400"/>
      <stop offset=".58" stop-color="#1d1400"/>
      <stop offset=".7" stop-color="#0c0800"/>
      <stop offset=".83" stop-color="#030200"/>
      <stop offset="1" stop-color="#000"/>
    </radialGradient>
    <radialGradient id="radial-gradient-6" cx="-6538.03" cy="-967.61" fx="-6538.03" fy="-967.61" r="6.1" gradientTransform="translate(2912.37 2588.12) scale(.39 2.33)" gradientUnits="userSpaceOnUse">
      <stop offset="0" stop-color="#d3c15f"/>
      <stop offset=".1" stop-color="#a39549"/>
      <stop offset=".2" stop-color="#786e36"/>
      <stop offset=".31" stop-color="#534c25"/>
      <stop offset=".43" stop-color="#353017"/>
      <stop offset=".55" stop-color="#1d1b0d"/>
      <stop offset=".68" stop-color="#0c0b05"/>
      <stop offset=".82" stop-color="#030201"/>
      <stop offset="1" stop-color="#000"/>
    </radialGradient>
    <radialGradient id="radial-gradient-7" cx="-7433.5" cy="-2582.72" fx="-7433.5" fy="-2582.72" r="6.1" gradientTransform="translate(6659.93 2538.43) rotate(-45) scale(.39 2.33)" xlink:href="#radial-gradient-6"/>
    <radialGradient id="radial-gradient-8" cx="-1244.14" cy="-3831.1" fx="-1244.14" fy="-3831.1" r="6.1" gradientTransform="translate(9276.06 -146.62) rotate(-90) scale(.39 2.33)" xlink:href="#radial-gradient-6"/>
    <radialGradient id="radial-gradient-9" cx="8405.17" cy="-3980.77" fx="8405.17" fy="-3980.77" r="6.1" gradientTransform="translate(9226.37 -3894.18) rotate(-135) scale(.39 2.33)" xlink:href="#radial-gradient-6"/>
    <radialGradient id="radial-gradient-10" cx="-6538.03" cy="-967.85" fx="-6538.03" fy="-967.85" r="4.7" gradientTransform="translate(2912.37 2588.12) scale(.39 2.33)" gradientUnits="userSpaceOnUse">
      <stop offset="0" stop-color="#d3c15f"/>
      <stop offset=".04" stop-color="#b8a953"/>
      <stop offset=".12" stop-color="#8d813f"/>
      <stop offset=".2" stop-color="#675e2e"/>
      <stop offset=".29" stop-color="#474120"/>
      <stop offset=".39" stop-color="#2d2914"/>
      <stop offset=".49" stop-color="#19160b"/>
      <stop offset=".61" stop-color="#0a0904"/>
      <stop offset=".76" stop-color="#020201"/>
      <stop offset="1" stop-color="#000"/>
    </radialGradient>
    <radialGradient id="radial-gradient-11" cx="-7432.47" cy="-2582.89" fx="-7432.47" fy="-2582.89" r="4.7" gradientTransform="translate(6659.93 2538.43) rotate(-45) scale(.39 2.33)" xlink:href="#radial-gradient-10"/>
    <radialGradient id="radial-gradient-12" cx="-1242.69" cy="-3831.1" fx="-1242.69" fy="-3831.1" r="4.7" gradientTransform="translate(9276.06 -146.62) rotate(-90) scale(.39 2.33)" xlink:href="#radial-gradient-10"/>
    <radialGradient id="radial-gradient-13" cx="8406.2" cy="-3980.6" fx="8406.2" fy="-3980.6" r="4.7" gradientTransform="translate(9226.37 -3894.18) rotate(-135) scale(.39 2.33)" xlink:href="#radial-gradient-10"/>
    <radialGradient id="radial-gradient-14" cx="366.29" cy="336.78" fx="366.29" fy="336.78" r="10.19" gradientUnits="userSpaceOnUse">
      <stop offset="0" stop-color="#ff732e"/>
      <stop offset=".08" stop-color="#d66026"/>
      <stop offset=".17" stop-color="#a54a1d"/>
      <stop offset=".27" stop-color="#783615"/>
      <stop offset=".37" stop-color="#53250f"/>
      <stop offset=".48" stop-color="#351709"/>
      <stop offset=".59" stop-color="#1d0d05"/>
      <stop offset=".7" stop-color="#0c0502"/>
      <stop offset=".83" stop-color="#030100"/>
      <stop offset="1" stop-color="#000"/>
    </radialGradient>
  </defs>
  <g class="cls-12">
    <g id="Layer_2" data-name="Layer 2">
      <g id="Line_art" data-name="Line art">
        <g>
          <path class="cls-14" d="m323.51,366.37c7.24-10.72,21.46-22.42,79.44-36.24,40.95-9.76,52.8-34.32,74.64-33.36,13.65.6,14.32,17.84,11.54,27.26-.56,1.88-3.32,3.15-3.82,4.86-.6,2.04.56,5.77-.96,10.32s-13.64,13.88-23.38,27.75c-5.59,7.96-9.94,16.45-12.69,22.18-1.97,4.1-3.15,8.53-3.46,13.07-1.05,15.21-3.54,45.79,2.77,63.28-13.44-2.64-24-9.12-24-9.12.24,7.68-1.44,15.12.24,20.16-3.84-1.2-6.72-1.68-8.88-3.84.72,10.8,1.68,26.4,19.92,37.2-3.6.72-10.56,2.25-16.8,1.37,7.92,9.43,27.6,37.75,27.6,37.75-6.24-2.4-14.64-6.48-16.8-8.16,15.36,13.44,17.13,33.38,18,38.16-4.56-5.28-9.36-10.08-14.16-12.72,5.52,20.16,20.88,47.52,27.12,53.04-6.48,3.12-10.56,1.2-10.56,1.2-.96,12.72,22.32,43.68,14.4,69.36-1.44-3.84-3.12-7.2-4.8-8.16,2.59,22.62-3.06,52.48-13.98,71.24-17.78-1.87-35.9-11.58-54.74-14.64-49.32.72-74.88,18.36-94.44,37.68,0,0,5.61,3.04,13.72,2.4.14,12.25-12.61,29.07-27.29,43.79-5.39-1.46-13.31-23.39-17.99-37.25-1.26,3.6-4.32,5.76-4.68,9.72-2.52-18-8.64-73.44-7.74-82.08-6.12,5.94-7.2,9.54-7.2,9.54,0,0-6.84-49.5,27.36-94.5-3.96.72-12.42,4.32-16.38,7.74,4.5-16.2,18-56.16,32.4-82.26-8.64,7.74-25.2,19.44-28.44,21.24,8.82-12.42,26.64-56.16,31.5-65.34-4.32,2.52-14.04,9-17.1,12.78,1.44-13.68,23.24-43.02,44.92-79.56-14.68-1.62-23.86-.36-29.62.36,17.46-11.16,39.6-41.76,38.52-45-3.24.36-10.98-.18-10.98-.18,7.02-6.66,17.28-30.6,16.92-33.3-2.88,1.08-10.12,2.26-10.12,2.26Z"/>
          <path class="cls-21" d="m247.66,477.63c-1.36,1.81-2.61,3.09-3.69,3.66,6.14-2.16,9.74-6.24,11.42-8.88-13.72,27.9-6.36,42.93-17.05,62.7-2.09,3.87-3.89,7.88-5.57,11.95-7.33,17.75-20.69,47.88-22.74,51.36,8.4-5.28,13.68-14.64,13.68-14.64-2.16,25.92-19.68,60.96-21.12,76.56,1.92-3.84,6.48-10.32,6.48-10.32-5.52,26.64-3.6,92.4-1.68,98.88.96-4.32,3.6-9.84,3.6-9.84-1.92,20.16,5.04,55.44,11.52,63.84-20.28-6.96-37.56,4.92-62.04-33.96-39.24-32.4-88.92-82.44-58.68-216-40.32,39.24-84.6,87.48-83.16,176.76-5.04-14.4-9.36-30.24-9.36-30.24-.36,36.72-10.8,103.32-5.4,126.36,5.4,23.04,25.92,66.96,87.12,66.24,74.99-4.96,92.16,3.96,147.96-51.48,0,0,6.21,7.52,8.56,10.37,1.86-1.19,3.97-2.64,6.26-4.3,8.21-5.98,18.71-14.76,28.37-24.44-5.39-1.46-13.31-23.39-17.99-37.25-1.26,3.6-4.32,5.76-4.68,9.72-2.52-18-8.64-73.44-7.74-82.08-6.12,5.94-7.2,9.54-7.2,9.54,0,0-6.84-49.5,27.36-94.5-3.96.72-12.42,4.32-16.38,7.74,4.5-16.2,18-56.16,32.4-82.26-8.64,7.74-25.2,19.44-28.44,21.24,8.82-12.42,26.64-56.16,31.5-65.34-4.32,2.52-14.04,9-17.1,12.78,1.44-13.68,23.24-43.02,44.92-79.56-14.68-1.62-23.86-.36-29.62.36,17.46-11.16,39.6-41.76,38.52-45-3.24.36-10.98-.18-10.98-.18,7.02-6.66,17.28-30.6,16.92-33.3-2.88,1.08-10.12,2.26-10.12,2.26,7.24-10.72,21.46-22.42,79.44-36.24,40.95-9.76,52.8-34.32,74.64-33.36-8.6-2.32-11.05-5.56-15.44-3.76-12.83,5.26-34.96,15.33-79.87,11.54-8.6-.73-17.26.97-24.89,5-49.66,26.19-49.76,1.53-126,7.58.36,29.52,13.32,59.04,55.8,78.48-10.8,24.12-8.64,24.84-29.16,36.72,6,.72,12.24,0,12.24,0-6.57,14.93-15.98,36.48-22.61,45.3Z"/>
          <path class="cls-14" d="m290.43,387.21c5.04-10.56,22.08-28.08,28.08-31.92-5.52-1.92-8.64-4.56-12-5.04,4.56-2.64,7.68-9.6,7.44-12-5.52,2.4-14.88,1.44-17.28,0,2.88-1.2,5.28-2.64,5.28-2.64-10.08-5.28-21.03-12.24-61.99-11.76,3.67,19.44,11.59,42.24,50.47,63.36Z"/>
          <path class="cls-14" d="m367.21,326.63c-12.67,0-22.94,6.93-22.94,15.45,0,2.01,8.02,3.57,8.76,3.26,8.79-3.67,20.19-7.5,35.17-11.5-3.56-5.42-11.62-7.21-20.99-7.21Z"/>
          <path class="cls-20" d="m367.21,328.51c-6.57,0-11.89,5.32-11.89,11.89,0,1.32.22,2.58.62,3.76,6.21-2.46,13.63-4.99,22.52-7.6-1.6-4.68-6.02-8.06-11.25-8.06Z"/>
          <path class="cls-21" d="m521.79,689.13s13.28.08,18.48-2.64c-30.24-.72-35.28-5.76-56.88-14.4-2.8-14.72-13.14-32.17-31.61-51.02-1.61-.13-2.51-.54-2.51-.54-.96,12.72,22.32,43.68,14.4,69.36-1.44-3.84-3.12-7.2-4.8-8.16,2.59,22.62-3.06,52.48-13.98,71.24-2.07-.22-4.14-.55-6.21-.96h0c-.06,0-.12-.02-.19-.03-.5-.1-1-.21-1.5-.32-.56-.12-1.12-.24-1.68-.37-.51-.12-1.03-.25-1.54-.38-.55-.14-1.1-.28-1.66-.42-.52-.14-1.03-.28-1.55-.42-.55-.15-1.1-.31-1.66-.47-.52-.15-1.03-.3-1.55-.46-.56-.17-1.12-.34-1.68-.52-.51-.16-1.02-.32-1.53-.48-.58-.18-1.16-.37-1.74-.56-.5-.16-1-.32-1.49-.49-.55-.18-1.11-.37-1.66-.55-1.57-.52-3.14-1.05-4.71-1.57-.06-.02-.11-.04-.17-.06-.99-.33-1.99-.66-2.98-.99-.35-.12-.7-.23-1.06-.34-.73-.24-1.46-.47-2.2-.71-.42-.13-.85-.26-1.27-.4-.67-.21-1.35-.42-2.02-.62-.45-.13-.89-.27-1.34-.4-.66-.19-1.32-.38-1.98-.56-.45-.13-.9-.25-1.35-.37-.68-.18-1.35-.35-2.03-.52-.43-.11-.87-.22-1.3-.32-.74-.18-1.48-.34-2.23-.5-.37-.08-.74-.16-1.11-.24-1.11-.23-2.23-.43-3.34-.61-49.32.72-74.88,18.36-94.44,37.68,0,0,5.61,3.04,13.72,2.4,0,.57-.02,1.16-.07,1.75,0,.11-.02.22-.03.33-.06.57-.14,1.15-.24,1.74-.02.11-.04.23-.07.34-.12.6-.25,1.2-.41,1.81,0,.02,0,.04-.01.06-.17.63-.37,1.26-.58,1.9-.04.12-.08.25-.13.37-.22.62-.45,1.25-.71,1.89-.05.12-.1.24-.15.35-.26.63-.54,1.27-.84,1.91-.02.04-.03.08-.05.12-.31.67-.65,1.34-1.01,2.01-.07.13-.14.27-.21.4-.35.66-.72,1.33-1.11,1.99-.07.12-.14.24-.21.36-.38.65-.78,1.31-1.2,1.97-.03.05-.07.11-.1.16-.44.69-.89,1.38-1.36,2.08-.1.14-.19.29-.29.43-.46.68-.94,1.37-1.43,2.06-.08.12-.17.23-.25.35-.48.66-.97,1.32-1.47,1.99-.06.07-.11.15-.16.22-.53.7-1.08,1.4-1.64,2.1-.11.14-.23.29-.34.43-.55.69-1.12,1.39-1.7,2.08-.09.11-.18.22-.27.33-.55.66-1.12,1.33-1.69,1.99-.07.08-.14.16-.21.24-.6.7-1.22,1.39-1.84,2.09-.13.14-.26.29-.39.43-.62.69-1.25,1.37-1.88,2.06-.09.1-.18.2-.27.29-.6.65-1.21,1.29-1.83,1.94-.09.09-.18.19-.27.28-.65.68-1.31,1.35-1.97,2.02-.14.14-.28.28-.42.42-.16.16-.32.32-.48.48,0,0,0,0,0,0-9.66,9.68-20.15,18.46-28.36,24.44-4.26,3.1-7.9,5.44-10.5,6.77,0,0,8.4,2.4,15.24-.36-47.52,38.88-121.44,60.48-147.84,36.48,12,46.56,60.48,86.4,105.78,106.56,0,0-7.2,1.26-16.5,4.32,57.6-6.24,225.12,80.64,305.76-55.92-8.64,27.12-4.08,25.92-6.72,41.04,21.72-59.52,78.24-55.2,79.2-166.08,1.92,7.2,8.88,14.88,12.96,18.24-20.16-26.88,17.76-83.52-69.36-148.56Z"/>
          <path class="cls-21" d="m110.67,639.45c1.92-33.6,30.72-30.72,75.84-109.92-2.88,20.16-2.88,38.4-8.64,45.6,34.56-52.32,43.68-135.24-12-166.02-55.68-30.78-141.12-69.18-144.96-169.98-.96,75.84-1.92,126.78,27.36,176.16-13.92-16.86-32.16-37.36-36.96-49.64-.06,92.96,42.72,113,87.84,148.52,37.44,37.44-2.88,62.4,11.52,125.28Z"/>
          <path class="cls-21" d="m170.19,358.89c-83.52-158.4,124.32-133.92,112.32-245.52-32.88,115.92-120.96-58.32-200.16,106.56-22.32,72.56,46.08,130.32,87.84,138.96Z"/>
          <path class="cls-21" d="m235.71,213.45C378.99,51.45,551.07,135.69,503.55,8.25c43.92,47.52,8.35,123.12-13.1,144.72,26.06-7.92,34.7-15.84,39.74-42.12,4.61,28.51-14.28,79.83-75.11,99.22-26.03,8.3-53.96,8.64-80.41,1.79-34.39-8.91-46.72-15.56-138.96,1.59Z"/>
          <g>
            <path class="cls-19" d="m254.29,358.08c-.1-.14-.2-.27-.3-.4.1.13.2.26.3.4Z"/>
            <path class="cls-13" d="m253.27,348.57c-1.62-.39-3.3-.28-4.96.24,1.2,2.22,2.55,4.45,4.11,6.7.5.72,1.03,1.45,1.57,2.17.1.13.2.26.3.4,2.6,3.56,3.45,10.17,1.94,17.33-.07.33-.13.66-.21.99-2.46,10.25-8.85,17.51-14.26,16.21-5.41-1.3-7.81-10.67-5.35-20.92,1.28-5.33,3.63-9.84,6.34-12.77-.86-1.4-1.66-2.82-2.41-4.25-3.34,3.99-6.13,9.6-7.69,16.12-3.41,14.19.31,27.24,8.29,29.16,7.62,1.83,16.37-7.15,20.12-20.3.18-.63.35-1.27.51-1.92.84-3.48,1.24-6.9,1.26-10.1.06-9.83-3.53-17.62-9.55-19.06Z"/>
          </g>
          <path class="cls-16" d="m274.85,368.63c-2.77-.99-5.92-.25-8.96,1.79,1.81,1.6,3.77,3.2,5.85,4.79.33.19.63.42.92.7,2.29,2.24,2.95,7.27,1.74,13.02-.29,1.36-.67,2.75-1.17,4.16-3.04,8.54-8.92,14.26-13.13,12.76-4.21-1.5-5.16-9.64-2.12-18.18.06-.17.13-.33.2-.5-1.61,3.23-3.53,6.01-5.61,8.15-.96,8.61,1.44,15.75,6.55,17.57,6.81,2.42,15.85-5.52,20.2-17.74.36-1,.65-2,.93-2.99.97-3.55,1.43-7.01,1.37-10.14-.12-6.67-2.5-11.87-6.75-13.38Z"/>
          <path class="cls-18" d="m272.29,370.2c.66,0,1.29.11,1.89.32,3.28,1.17,5.31,5.48,5.42,11.53.06,2.97-.39,6.28-1.3,9.57-.3,1.1-.58,2.01-.88,2.85-3.42,9.6-10.19,16.84-15.75,16.84-.66,0-1.3-.11-1.89-.32-3.21-1.14-5.19-5.36-5.41-11.03.55,4.04,2.34,6.79,5.05,7.76.66.24,1.36.35,2.08.35,5.01,0,10.6-5.89,13.6-14.33.5-1.42.92-2.9,1.24-4.41,1.38-6.55.53-12.11-2.29-14.87-.37-.36-.77-.68-1.2-.93-1.19-.91-2.34-1.83-3.45-2.75,1-.4,1.98-.6,2.88-.6m0-2c-2.07,0-4.26.79-6.4,2.22,1.81,1.6,3.77,3.2,5.85,4.79.33.19.63.42.92.7,2.29,2.24,2.95,7.27,1.74,13.02-.29,1.36-.67,2.75-1.17,4.16-2.71,7.63-7.69,13-11.72,13-.49,0-.96-.08-1.41-.24-4.21-1.5-5.16-9.64-2.12-18.18.06-.17.13-.33.2-.5-1.61,3.23-3.53,6.01-5.61,8.15-.96,8.61,1.44,15.75,6.55,17.57.82.29,1.68.43,2.56.43,6.37,0,13.82-7.44,17.64-18.17.36-1,.65-2,.93-2.99.97-3.55,1.43-7.01,1.37-10.14-.12-6.67-2.5-11.87-6.75-13.38-.82-.29-1.68-.43-2.56-.43h0Z"/>
          <path class="cls-11" d="m251.47,350.34c.45.01.9.07,1.34.18,4.85,1.17,8.08,8.04,8.02,17.1-.02,3.15-.43,6.39-1.21,9.65-.13.56-.29,1.14-.49,1.84-3.1,10.88-10.06,19.09-16.18,19.09-.52,0-1.04-.06-1.54-.18-5.35-1.28-8.42-9.18-7.96-18.78-.03,2.42.22,4.72.75,6.78,1.2,4.7,3.72,7.74,7.1,8.55.57.14,1.16.21,1.75.21,6.16,0,12.44-7.53,14.93-17.9.06-.25.11-.49.16-.73l.06-.31c1.59-7.56.72-14.81-2.28-18.92-.11-.15-.23-.3-.34-.45-.56-.75-1.05-1.43-1.5-2.08-.91-1.32-1.77-2.66-2.59-4.03m-11.39,8.01c.07.12.14.24.21.36-1.2,1.5-2.29,3.24-3.22,5.16.88-1.99,1.89-3.85,3.01-5.52m11.2-10.01c-.99,0-1.98.17-2.97.48,1.2,2.22,2.55,4.45,4.1,6.7.5.72,1.03,1.45,1.57,2.17.1.13.2.26.3.4,2.6,3.56,3.45,10.17,1.94,17.33-.07.33-.13.66-.21.99-2.27,9.45-7.88,16.36-12.98,16.36-.43,0-.86-.05-1.28-.15-5.41-1.3-7.81-10.67-5.35-20.92,1.28-5.33,3.62-9.84,6.34-12.77-.86-1.4-1.66-2.82-2.41-4.25-3.34,3.99-6.13,9.6-7.69,16.12-3.41,14.19.31,27.24,8.29,29.16.66.16,1.33.24,2.01.24,7.09,0,14.69-8.53,18.11-20.54.18-.63.35-1.27.51-1.92.84-3.48,1.24-6.9,1.26-10.1.06-9.83-3.53-17.61-9.55-19.06-.66-.16-1.32-.23-1.99-.23h0Z"/>
          <g class="cls-15">
            <g>
              <g>
                <g>
                  <path class="cls-2" d="m385.59,336.84c0,.84-8.4,1.52-18.77,1.52s-18.77-.68-18.77-1.52,8.4-1.52,18.77-1.52,18.77.68,18.77,1.52Z"/>
                  <g>
                    <ellipse class="cls-8" cx="366.46" cy="337.85" rx="2.37" ry="14.18"/>
                    <path class="cls-7" d="m368.14,336.17c5.54,5.54,9.28,10.78,8.35,11.71-.93.93-6.17-2.81-11.71-8.35-5.54-5.54-9.28-10.78-8.35-11.71.93-.93,6.17,2.81,11.71,8.35Z"/>
                    <ellipse class="cls-9" cx="366.46" cy="337.85" rx="14.18" ry="2.37"/>
                    <path class="cls-10" d="m364.78,336.17c5.54-5.54,10.78-9.28,11.71-8.35.93.93-2.81,6.17-8.35,11.71-5.54,5.54-10.78,9.28-11.71,8.35-.93-.93,2.81-6.17,8.35-11.71Z"/>
                  </g>
                </g>
                <g>
                  <ellipse class="cls-4" cx="366.46" cy="337.28" rx="1.83" ry="10.93"/>
                  <path class="cls-6" d="m367.75,335.99c4.27,4.27,7.15,8.31,6.44,9.03s-4.76-2.17-9.03-6.44c-4.27-4.27-7.15-8.31-6.44-9.03.72-.71,4.76,2.17,9.03,6.44Z"/>
                  <ellipse class="cls-5" cx="366.46" cy="337.28" rx="10.93" ry="1.83"/>
                  <path class="cls-3" d="m365.16,335.99c4.27-4.27,8.31-7.15,9.03-6.44s-2.17,4.76-6.44,9.03c-4.27,4.27-8.31,7.15-9.03,6.44-.71-.71,2.17-4.76,6.44-9.03Z"/>
                </g>
              </g>
              <circle class="cls-1" cx="366.51" cy="336.57" r="10.32"/>
            </g>
          </g>
          <path d="m594.46,841.22s-2.87-3.86-2.87-3.86c-8.35-11.69-6.68-27.46-7.72-41.15-1.15-47.2-24.09-79.04-60.52-106.59,6.5-.18,13.28-.34,19.06-3.62-10.52-.3-21.19-.72-31.33-3.59-9.39-2.65-18.15-7.17-27.23-10.73-4.01-18.49-15.85-34.04-28.54-47.69,5.72.93,12.42-.79,17.69-1.2,0,0-9.66-7.44-9.66-7.44-3.36-2.71-6.09-6.72-8.74-10.27-7.92-11.36-15.02-23.53-20.13-36.46,6.8,5.63,11.93,14.2,17.17,21.1-2.45-10.45-3.88-22.5-8.81-32.15-2.01-4.19-4.57-8.13-7.62-11.64.41.24.81.47,1.23.71,4.68,2.72,11.1,5.65,16.09,8.01-8.62-11.65-17.42-23.48-26.4-34.84-1.98-2.5-4-4.97-6.07-7.41,7.2,1.04,14.77-.37,21.89-1.14,0,0-5.97-3.28-5.97-3.28-14.51-7.44-19.71-19.63-21.05-35.3,2.66,3.14,7.15,4,10.68,5.8-.81-2.19-1.61-4.55-1.74-6.97-.36-5.01.14-10.12-.3-15.15,7.13,5.03,15.15,8.94,23.54,11.44l4.12,1.25-1.44-4.37c-2.33-6.75-3.17-14.18-3.59-21.56-.65-12.99.08-26.2,1-39.21.19-5.4,1.57-10.51,4.1-15.32,4.83-10.01,10.44-19.7,17.64-28.18,2.38-2.85,4.88-5.6,7.45-8.33,2.56-2.76,5.21-5.39,7.74-8.49,1.36-1.56,2.55-3.8,2.78-5.99.58-2.77-.44-5.77-.34-8.4.39-1.41,2.58-2.64,3.32-4.27.47-1.12.61-1.83.94-2.95,1.29-4.81,2.57-9.9,1.62-14.94-.54-3.59-2.46-6.83-5.18-9,1.43-2.21,1.8-4.36,1.26-5.76-.67-1.72-6.24-2.78-11.87-2.78v.5h0v-.5s0,0,0,0c-4.99,0-10.02.83-11.71,2.78-.04.05-.07.1-.11.15-.74-.02-1.49.08-2.25.33-4.89,1.96-9.73,3.99-14.73,5.61-22.6,7.73-46.65,7.42-70.17,5.8-7.95.02-15.73,2.46-22.62,6.33-9.29,4.81-19.13,8.96-29.52,10.42-10.45,1.62-20.87-.64-31.16-2.43-20.82-3.96-42.08-5.2-63.25-4.67,0,0-3.22.03-3.23.03.32,6.68.95,13.44,2.53,19.94,1.73,7.66,4.66,15,8.6,21.76-6.93,9.45-9.76,22.39-7.17,33.77,1.82,8,8.28,14.37,16.58,9.81,1.25-.71,2.38-1.57,3.43-2.51-.76,6.28.09,14.15,6.4,17.12,7.16,2.83,13.77-3.65,17.4-9.08,2.25-3.51,4.07-7.41,5.24-11.47,1.8.93,3.62,1.83,5.46,2.68-3.35,7.03-6.05,14.62-10.17,21.15-4.46,6.66-11.99,10.25-18.76,14.25,0,0-3.07,1.95-3.07,1.95,4.91.48,9.98.47,14.87-.16-6.66,14.39-12.78,29.19-21.49,42.46-1.18,1.62-2.66,3.76-4.34,4.67l.96,2.2c.06-.02.11-.05.16-.07h0s0,0,0,0c2.33-.95,4.52-2.23,6.43-3.84.55-.46,1.07-.95,1.58-1.46-3.76,8.72-6.16,18.02-7.31,27.43-1.11,8.33-1.87,16.67-5.03,24.46-1.02,2.62-2.3,4.99-3.63,7.49-2.64,5.02-4.73,10.29-6.92,15.43-6.64,15.28-13.31,30.99-20.71,45.9,0,0-2.25,4.52-2.25,4.52,4.09-2.77,8.58-5.95,11.68-9.8,1.61-1.89,3.08-3.87,4.41-5.96-1.51,12.17-5.36,23.96-9.25,35.57-3.64,11.22-9.59,25.32-11.48,37.52-.06.11-.13.22-.19.34,0,0,.06.02.14.04-.19,1.25-.34,2.49-.43,3.7.54-1.12,1.11-2.23,1.71-3.33.07.02.13.04.13.04.01-.12.04-.24.05-.36,1.37-2.49,2.89-4.92,4.48-7.28-2.69,15.39-3.08,31.04-3.5,46.62-.14,16.06-.39,32.2,1.23,48.21.11,1.42,1.78,6.47,2.21,8.02l.94-6.41c.28-1.89.77-3.82,1.35-5.73-.24,9.49.91,18.95,2.49,28.29.95,5.39,2.11,10.75,3.6,16.02,1.56,5.2,3.08,10.61,6.26,15.1-5.85-2.07-12.15-2.62-18.31-3.27-21.17-1.45-32.58-14.04-43.2-31.01-7.55-6.53-15.04-13.16-21.86-20.42-51.59-52.29-49.91-127.52-33.39-194.35,0,0,2.85-13.54,2.86-13.55,0,0-9.65,9.73-9.65,9.73-51.77,50.45-82.5,102.03-81.04,175.5-3.41-10.38-6.47-20.95-9.21-31.52,0,0-.26,5.44-.26,5.44-1.67,38.18-9,76.28-8.41,114.85.28,13.1,4.92,26.06,11.23,37.49,17.83,32.85,53.65,46.59,89.49,42.64,2.49-.15,4.99-.28,7.48-.4,15.89,47.56,62.03,82.27,106.46,101.87-1.81.37-3.6.78-5.39,1.24-3.21.44-6.41,1.26-9.34,2.7-.06.02-.12.04-.18.06,0,0-5.03,1.62-5.03,1.62,8.62-1.22,17.45-1.04,26.07.12,20.8,2.68,41.22,7.7,61.83,11.59,54.09,10.53,114.12,17.38,164.57-9.77,23.57-12.62,42.66-32.32,56.68-54.92-.07.22-.25.8-.25.8-1.47,5.04-2.84,10.1-3.6,15.32-.83,5.51-.46,11.05-.99,16.55-.25,1.31-.45,2.64-.56,3.97-.02.09-.03.18-.05.27,0,0,1.05.28,1.05.28,2.69-7.39,6.22-14.46,10.5-21.06,8.55-13.32,20.19-24.18,30.84-35.79,10.78-11.6,20.13-24.75,26.07-39.51,8.66-21.17,11.33-44.24,11.77-66.95,3.19,7.62,9.45,13.66,15.77,18.82Zm-109.91-504.07c-.29,1.88-1.13,3.45-2.36,4.87-2.38,2.88-5.08,5.53-7.66,8.28-1.26,1.3-2.49,2.62-3.71,3.96-1.75,1.47-3.48,2.95-5.19,4.45-7.36,6.13-14.98,13.97-23.63,18.18,6.12-2.67,11.22-7.17,16.42-11.25,2.57-2.1,5.75-4.77,8.85-7.32-4.99,5.91-9.51,12.21-13.27,18.98-2.08,3.88-4.34,7.74-6.15,11.77-1.83,2.64-3.49,5.38-5.04,8.18-5.63,10.18-9.94,21.01-14.13,31.84,5.03-11.65,10.08-23.52,17-34.19-.3,1.03-.56,2.08-.75,3.15-.58,2.96-.82,8.4-1.04,11.3-.76,11.3-1.26,22.63-.62,33.95.45,7.22,1.27,14.51,3.56,21.47-5.95-1.34-11.72-3.41-17.21-6.07-2.35-1.14-4.67-2.38-6.85-3.77.18,3.82-.07,7.63-.32,11.5-.15,2.97-.34,5.98.28,8.93-2.58-.75-5.32-1.35-7.21-3.23,0,0-1.47-1.36-1.47-1.36.28,4.36.53,8.74,1.36,13.08,1.78,10.66,8.28,19.92,17.32,25.67-4.81.93-9.7,1.61-14.55.96l-1.97-.23c5.41,6.44,10.35,13.33,15.3,20.14,4.03,5.59,8.02,11.22,11.97,16.87-4.85-2.01-9.77-4.2-14.13-7.03l-1,1.21c5.33,4.67,9.47,10.61,12.3,17.1,2.56,5.73,4.01,11.75,5.03,17.93-4.14-4.61-8.68-8.92-14.24-11.82,0,0,.51,1.85.51,1.85,2.72,9.7,6.72,18.94,11.18,27.94,2.25,4.48,4.64,8.9,7.22,13.2,2.49,3.99,4.86,7.98,8.12,11.42-.47.2-.94.38-1.42.53-2.72.92-5.91,1.07-8.5-.19,0,0-.07,1.06-.07,1.06-.13,6.21,2.73,11.93,4.85,17.6,2.26,5.58,4.58,11.1,6.53,16.76,3.56,10.38,6.2,21.78,3.66,32.6-.98-2.41-2.06-4.78-4.25-6.38,0,0-1.36-.87-1.36-.87,0,0,.19,1.64.19,1.64,1.88,18.18-.74,36.79-6.47,54.1-1.97,5.77-4.37,11.4-7.41,16.65,0,0,.26.15.49.28-18.31-1.93-36.47-12.06-54.53-14.78-19.25.07-38.34,3.22-55.75,10.54.75-4.38,1.38-8.79,1.63-13.24.06-2.59.3-5.29-.48-7.85-.08-.17-.13-.31-.34-.44-.25-.18-.63-.01-.72.26-.29,1.05-.93,2-1.64,2.88,1.18-5.5,2.19-11.13,1.48-16.74.47,7.09-1.61,14.11-3.6,20.84,1.45-1.88,3.36-3.71,4.24-5.96.65,2.21.52,4.66.56,6.99-.08,4.43-.55,8.86-1.14,13.27-10.53,4.43-20.45,10.4-29.41,18.14-3.54,2.97-6.92,6.14-10.2,9.38,4.3,2.29,9.24,3.07,14.06,2.83-.34,8.26-5.02,15.77-9.58,22.46-5.11,7.12-10.89,13.72-17.07,19.94-.55-.2-1.13-.66-1.64-1.19-1.72-1.86-2.97-4.11-4.17-6.37-4.71-9.31-8.11-19.24-11.5-29.12,0,0-.75-2.21-.75-2.21l-.74,2.21c-.54,1.61-1.53,3.02-2.52,4.59-.4.62-.74,1.29-1.06,1.97-2.52-19.33-4.6-38.74-6.31-58.15-.54-7.51-1.47-15.22-.86-22.68-2.99,3.26-6.19,6.63-7.93,10.75.06-12.18,1.37-24.29,3.59-36.25,3.95-20.38,12.38-39.77,24.2-56.82,0,0,1.07-1.61,1.07-1.61-5.24.88-10.14,3.01-14.73,5.6-.65.38-1.29.78-1.91,1.2,6.03-20.42,13.39-40.49,21.94-59.99,3.55-8.07,7.54-16.05,11.86-23.73,0,0-3.37,2.94-3.37,2.95-7.99,6.89-16.56,13.38-25.38,19.22,8.55-14.19,15.23-31.05,22.1-45.93,2.48-5.51,4.86-11.1,7.56-16.44l1.23-2.43c-5.98,3.4-11.52,7.47-16.77,11.88,2.76-5.74,5.92-11.34,8.97-16.93,11.13-19.94,22.74-39.62,34.38-59.27l.63-1.06-1.22-.12c-8.83-1.01-17.79-1.04-26.63-.04,7.29-5.26,13.55-11.79,19.38-18.59,3.23-3.83,6.31-7.78,9.19-11.88,2.86-4.22,5.76-8.26,7.62-13.11l.39-1.12c-3.4.37-6.92.22-10.38.02,1.79-1.99,3.22-4.19,4.62-6.39,4.49-7.48,8.41-15.32,11.25-23.58.27-.92.56-1.78.51-2.8,0,0-.14-1.46-.14-1.46-2.71,1-5.54,1.8-8.39,2.47,4.92-4.11,10.07-7.33,15.79-10.3,19.87-10.17,41.1-17,62.69-23.15,7.34-2.15,14.52-4.84,21.32-8.26,6.82-3.4,13.2-7.54,19.42-11.81,6.21-4.23,12.21-8.87,19.09-11.98.76-.31,1.51-.6,2.26-.86,2.88,2.67,7.56,5.07,11.14,5.83l-.24,12.77c-1.77,2.26-3.9,4.35-6.07,6.33-6.79,6.11-14.38,11.35-22.55,15.45-10.85,5.4-23.29,8.83-35.42,6.42,12.11,3.23,24.96.12,36.07-5.07,5.42-2.69,10.69-5.75,15.57-9.31,9.46-2.97,17.33-3.26,19.68-2.24-.59,2.78.16,5.64-.51,8.38Zm-128.44,1.55c1.15-5.07,5.91-8.96,11.11-8.89,4.32-.06,8.31,2.39,10.73,5.93-3.02.8-6.02,1.64-9.01,2.54-.48-2.86-1.78-5.74-4.53-7.88-1.28,3.25-1.31,6.6-.71,9.53-2.67.88-5.31,1.82-7.93,2.82-.11-1.36-.03-2.72.34-4.05Zm22.52-3.14c-1.87-4.49-6.48-7.7-11.41-7.67-5.99-.05-11.51,4.68-12.27,10.64-.23,1.49-.15,3,.16,4.47-1.2.47-2.39.95-3.58,1.45-1.38-.31-3.01-.85-4.32-1.59,0,0-.04-.09-.04-.09-.02.01-.04.02-.06.03-.47-.27-.88-.57-1.23-.89.78-9.96,12.64-14.01,21.33-14.16,7.16.05,14.42,1.27,20.29,5.59-2.97.72-5.93,1.46-8.88,2.24Zm-32.82,6.24s0,.03.01.04c-.01-.01-.03-.03-.05-.04-.05-.06-.02-.09.04,0Zm144.16-31.26c.52,4.57.19,9.45-1.26,13.81-.32.63-.8,1.13-1.3,1.6-3.49-1.82-5.89-5.43-7.98-8.71l-.24-12.95c2.71-1.09,4.81-2.53,6.34-4.07,2.29,2.2,3.87,5.56,4.45,10.31Zm-234.25,65.09c-1.13,5.31-3.56,10.36-7.27,14.09-5.14,4.89-10.23,2.21-11.78-4.16-1.36-5.44-.66-11.27,1.04-16.57,1.01-3.06,2.45-6,4.42-8.52,3.85,5.62,8.41,10.74,13.59,15.16Zm-22.16,13.3c-2.5-10.77-.08-23.08,6.07-32.33.69,1.14,1.41,2.27,2.16,3.38-6.07,6.74-8.71,17.24-6.74,26.02,3.24,11.95,13.26,9.37,18.33.27,3.93-6.79,5.53-15.03,3.93-22.74-.6-3.99-3.55-6.88-5.81-9.98-.99-1.4-1.96-2.84-2.89-4.3,2.14-.74,4.33-.47,6.23.47,3.59,1.88,5.49,6.08,6.34,9.96,1.9,9.31-.14,19.3-4.46,27.67-5.84,11.65-18.68,17.87-23.17,1.57Zm31.72-18.37c.05.05.3.27.3.27l.28.26.04-.03c.58.47,5.56,4.55,5.56,4.55.98.54,1.68,1.53,2.14,2.62,1.11,3.22,1.12,6.85.4,10.42l-12.19-8.39c2.81,2.26,5.85,4.45,9.14,6.55.99.63,2.01,1.25,3.04,1.87-1,4.92-3.39,9.72-6.28,13.2-7.63,8.4-12.06,1.09-10.81-7.49.28-2.41.9-4.78,1.76-7.05,0,0-.02,0-.02-.01,1.14-2.35,2.11-4.8,2.85-7.32.1.08.21.17.32.25l-.31-.26c1.09-3.66,1.73-7.44,1.83-11.24.68.63,1.27,1.17,1.75,1.61,0,0,0,0-.01,0l.22.18Zm9.12,33.26c-3.81,6.09-13.34,13.52-18.95,5.48-2.6-4.03-2.84-9.09-2.4-13.77.49-.51.95-1.04,1.39-1.58.13-.16.26-.33.39-.49.31-.4.61-.8.9-1.22.19-.27.39-.54.57-.82.05-.08.1-.15.15-.23-.83,3.49-1.08,7.12-.16,10.64,2.1,7.02,8.38,5.31,12.15.72,5.25-6.29,8.87-16.7,6.06-24.7-.43-1.14-1.52-2.54-2.46-3.02,0,0-4.38-3.58-5.28-4.32,1.4-.85,2.72-1.38,3.94-1.62.14-.03.28-.06.42-.08.16-.02.32-.04.48-.06.16-.01.31-.02.47-.02.31,0,.61,0,.91.03.06,0,.13.01.19.02,3.28.42,5.65,3.12,6.9,6.74.07.22.15.43.21.65,2.35,9.41-.69,19.7-5.9,27.65Zm-183.39,487.53c-13.7.15-27.61-1.96-40.18-7.54-23.54-10.1-39.96-32.64-45.95-57.17-1.04-4.06-1.39-8.28-1.6-12.5-.69-21.25,1.71-42.45,3.44-63.64,1.3-15.23,2.77-30.45,3.26-45.74,2.82,9.6,5.9,19.12,9.29,28.53,0,0,0-3.61,0-3.61-1.26-73.76,29.13-124.53,80.81-173.66-8,37.76-11.93,77.22-3.89,115.29,8.18,40.66,32.18,72.4,64.3,97.62,2.5,5.77,5.71,11.24,9.66,16.28,10.58,13.25,21.8,17.22,38.42,17.67,5.96.19,12,.97,17.86,2.19,0,0-2.74-3.06-2.74-3.06-2.97-4.15-4.56-9.62-6.06-14.58-4.2-15.65-6.94-32.07-5.99-48.31,0,0,.27-3.46.27-3.46-1.57,3.36-3.2,6.84-4.34,10.41-.42-3.13-.54-6.4-.75-9.52-.65-12.36-.81-24.75-.7-37.13.3-16.44.57-33.08,3.58-49.26l.57-2.86c-1.69,2.4-3.56,4.98-5.17,7.42-.34.52-.67,1.04-1,1.56,1.01-5.05,2.7-10.01,4.27-14.9,3.72-11.04,9.47-26.75,12.32-37.88,1.96-7.3,3.42-14.8,3.89-22.39-2.85,5.1-6.66,9.8-11.25,13.47,4-8.61,7.95-17.77,11.66-26.37,4.56-10.21,8.39-20.87,13.28-30.88,2.72-4.95,4.92-10.33,6.09-15.87,2.33-11.05,2.36-22.33,5.61-33.15,1.5-5.37,3.56-10.57,5.99-15.59,0,0-1.08-.61-1.08-.6-1.51,2.15-3.46,3.97-5.65,5.4,1.48-2.14,2.7-4.49,4.04-6.73,2.26-4.12,4.31-8.33,6.3-12.56,4.11-8.79,7.9-17.71,11.71-26.61,0,0-1.06.12-1.06.12-2.85.15-5.75.11-8.61-.14,2.48-1.51,4.95-3.05,7.35-4.75,3.34-2.34,6.55-5.22,8.77-8.77,4.24-7.07,6.67-14.75,10.06-22.18,0,0,.35-.82.35-.82,0,0-.66,0-.66,0-2.09-.96-4.16-1.99-6.21-3.05.75-2.95,1.15-5.98,1.11-9,1.61.84,8.06,4.2,8.06,4.2,0,0,0,0,0,0,0,0-7.29-4.75-8.1-5.28-.1-2.04-.39-4.07-.92-6.07-.9-3.07-2.81-6.16-5.85-7.45-.05-.02-.1-.04-.14-.06-.13-.05-.25-.12-.38-.17-3.12-1.13-6.41-.04-9.1,1.63l-2.59-2.38c-.04-4.11-.58-8.47-2.35-12.23-.06-.13-.12-.27-.19-.4-.05-.1-.1-.2-.15-.3-.64-1.24-1.41-2.4-2.33-3.4-.03-.03-.05-.06-.08-.09,0,0-.02-.01-.02-.02-.22-.23-.45-.45-.69-.67-.21-.19-.43-.37-.66-.54-.07-.05-.14-.1-.21-.15-.23-.16-.46-.32-.7-.47-.33-.2-.68-.37-1.04-.53,0,0,0,0-.01,0-.47-.21-.96-.39-1.48-.52-.79-.2-1.6-.26-2.4-.24-.13,0-.25.01-.37.02-.17.01-.35.03-.52.05-.34.04-.67.09-1,.17-.17.04-.33.08-.5.12-3.14-7.05-4.93-14.49-5.95-22.09,9.62-.37,19.54-.44,29.04.56,10.61.92,20.82,3.95,30.27,8.92-2.12,1.02-4.33,1.84-6.55,2.53,1.66,1.04,3.65,1.46,5.46,1.64,4.38.42,9.02.24,13.09-1.53-.29,3.59-2.52,6.85-4.91,9.43-.86,1.01-2.24,1.6-3.02,2.66.28.25.78.47,1.18.52,3.9.99,7.46,3.36,11.29,4.44h0c-3.71-1.36-7.01-3.91-10.78-5.24.12-.08.25-.23.6-.48,2.39-2.03,4.13-4.72,5.31-7.61.56-1.34.94-2.88.81-4.47-2.82,1.33-6.02,1.69-9.12,1.71-2.4-.06-5.08-.18-7.37-.98,1.72-.78,3.4-1.66,5.02-2.65,0,0-.78-.42-.78-.42-18.65-11.16-41.06-11.93-62.22-11.82h-.6s.11.59.11.59c1.57,8.49,4.07,16.91,8.13,24.57,0,0,0,0-.01,0,.06.11.12.22.18.33.04.07.07.14.11.21l.19.37s.01,0,.02,0c.85,1.56,1.75,3.09,2.71,4.58,2.05,3.17,4.72,5.88,5.24,9.78.56,3.42.52,7.06-.09,10.63-7.33-7.44-13.19-16.33-16.9-26.06-3.51-9.17-5.04-18.95-5.1-28.74,14.79-.42,29.62-.43,44.33,1.29,10.51,1.07,20.64,3.17,31.29,4.14,9.58.95,19.44-.33,28.32-4.11,6.15-2.53,12.2-5.78,17.81-9.2,8.97-5.84,19.3-7.76,29.81-5.89,20.97,3.05,43.05,2.26,62.84-6.04,2.47-.98,4.91-2.04,7.33-3.1,3-1.13,5.73-3.08,8.82-3.65-.71,1.58.26,3.47,2.08,5.25-4.21,1.65-8.23,3.83-12.01,6.29-9.42,6.22-18.67,12.84-29.01,17.48-6.83,3.15-13.97,5.65-21.3,7.32-5.29,1.25-10.62,2.47-15.95,3.76-4.75-6.35-13.65-7.59-21.09-8.09-7.37-.42-16.12,1.68-21.49,7.02-3.35,1.81-7.19,2.95-11,2.76,2.74.78,5.59.88,8.4.53-.86,1.42-1.51,2.99-1.92,4.73-4.24,1.38-8.85,1.86-13.32,1.52,4.42,1.9,9.26,2.96,14.13,3.04.13.16.27.31.42.45-2.28.84-4.67,1.4-7.07,1.71-3.95.55-8,.42-11.91-.38-.07-.03-.15-.03-.22-.04.07.02.14.05.22.05,4.02.78,7.92,1.92,12.04,2.3,2.46.18,4.94.07,7.38-.28-1.12.57-2.23,1.14-3.33,1.75-6.67,3.78-12.97,8.89-16.91,15.58,0,0-1.39,2.33-1.39,2.33,2.45-.6,5.09-1.48,7.49-2.16,1.66-.54,3.33-1.08,4.91-1.83-.02.78-.32,1.53-.57,2.26-1.94,5.12-4.52,9.99-7.18,14.76-3.01,5.1-6.29,10.88-10.6,14.78,0,0-2.91,3.76-2.91,3.76,4.65-.22,9.41-.38,14.03-1.08-1.79,3.99-4.51,7.75-7.01,11.35-8.73,11.82-18.64,23.37-31,31.45,0,0-5.03,3.51-5.03,3.51,4.11-.58,9.18-1.46,13.28-1.85,6.91-.72,13.85-.68,20.78-.14-7.88,12.54-15.72,25.11-23.45,37.76-7.92,13.21-16.15,26.03-23,39.89l-4.63,14.1s9.59-10.52,9.59-10.52c3.97-4.32,8.15-8.52,12.69-12.28-8.83,17.51-17.01,36.66-26.59,53.57-1.48,2.58-3.03,5.13-4.69,7.4,0,0-5.84,9.72-5.84,9.72,0,0,9.23-5.93,9.23-5.93,5.08-3.45,9.59-7.23,14.32-11.07,3.3-2.75,6.58-5.54,9.76-8.44-13.3,24.63-23.4,50.88-31.96,77.51,0,0-3.35,10.93-3.35,10.93,0,0,7.82-8.11,7.82-8.11,3.36-3.37,7.71-6.07,12.17-8.02-4.53,5.95-8.55,12.3-11.96,18.97-11.18,22.37-17.22,48.84-13.18,73.75,0,0,.15.77.15.77,0,0,.22-.74.22-.74,1.42-2.99,3.73-5.44,6.14-7.71-.1,2.87.05,5.66.16,8.48,1.56,27.73,4.32,55.48,7.71,83.07,0,0,2.8-10.87,2.8-10.87.15-2.53,1.32-4.83,2.44-7.18.08-.17.14-.35.21-.53,3.17,9.2,6.42,18.41,10.83,27.11.82,1.57,1.69,3.11,2.71,4.6.97,1.27,1.86,2.63,3.31,3.42-5.5,5.45-11.3,10.62-17.22,15.57-5.19,4.21-10.48,8.44-16.13,12.03-1.54-1.86-8.24-9.99-8.24-9.99,0,0-.43-.52-.43-.52,0,0-.49.48-.49.48-12.08,11.9-24.66,23.54-39.06,32.56-22.45,14.61-47.43,15.9-73.37,16.9-2.86.12-5.74.25-8.62.37-1.51-.95-2.95-2-4.29-3.18l-9.22-7.48s3.02,10.77,3.12,11.13c-5.38.26-10.75.55-16.08.91Zm159.94-36.43c1.66,0,3.31-.18,4.93-.53-9.9,7.53-20.47,14.12-31.48,19.84-23.34,12.44-71.33,29.86-100.08,19.1,9.19-.4,18.38-.87,27.59-1.79,8.63-.91,17.27-2.34,25.59-4.96,24.85-7.74,44.56-25.94,61.45-45.05,1.5,1.81,6.24,7.56,7.68,9.3-1.18.73-2.37,1.44-3.59,2.1,0,0-1.25.65-1.25.66,2.99.86,6.05,1.35,9.16,1.34Zm327.79-35.61s-.92-2.96-.92-2.96c-.75,16.7-2.3,33.52-6.3,49.76-3.59,15.12-9.58,29.67-18.54,42.37-13.8,21.31-44.27,42.26-52.5,67.31.11-3.68.13-7.36.67-10.98,1.02-6.72,3.03-13.65,5.1-20.14l1.18-3.82s-2.17,3.38-2.17,3.38c-52.15,83.1-135.15,82.22-221.7,64.39-17.11-3.32-34.28-7.29-51.58-10.23-5.15-.88-10.35-1.66-15.59-1.7.63-.12,1.25-.26,1.88-.37,0,0-1.57-.72-1.57-.72-23.18-10.97-44.72-25.62-63.1-43.46-15.64-15.3-29.4-33.56-36.58-54.24,3.51,1.61,7.24,2.75,10.96,3.47,43.7,7.33,101.01-21.71,133.29-49.92,0,0-2.94,1.1-2.94,1.1-4.11,1.57-8.69,1.56-13,.75,7.58-2.8,13.72-8.41,19.96-13.39,6.61-5.52,12.95-11.35,18.97-17.52,10.31-11.11,26.22-28.64,25.73-44.56-4.36.36-8.89-.15-12.94-1.84,3.92-1.74,6.84-4.39,9.82-7.02,3.26-2.78,6.64-5.4,10.16-7.83,20.94-14.98,48.61-20.59,72.89-21.26,19.51,2.83,37.61,12.88,57.52,13.8,6.62.29,13.35-.76,19.41-3.47-7,2.73-13.98,3.35-20.94,2.76,3.93-4.74,6.25-10.49,8.15-16.22,1.97-5.91,3.48-11.95,4.62-18.06,1.79-10.3,2.58-20.84,1.67-31.26.82,4.33,1.93,14.03,2.43,17.63,0,0,3.72-14.3,3.73-14.3.63-2.26,1.02-4.55,1.24-6.83,2.99,7.78,7.27,15.06,10.26,22.83,4.16,10.23,7.37,21.98,2.88,32.66,4.88-10.55,2.03-22.64-1.81-33.06-3.39-9.79-8.85-18.96-11.2-29.06-.09-1.87-.28-3.72-.56-5.54-1.9-12.22-7.11-23.36-12.01-34.47-1.98-4.84-4.62-9.92-5.14-15.14,1.02.65,2.13,1.11,3.28,1.44,6.37,6.72,12.37,13.81,17.46,21.54,5.45,8.26,10.01,17.32,11.96,27.08l.06.29.28.11c4.58,1.83,9.1,3.8,13.64,5.75,9.04,4.04,18.7,6.95,28.6,7.81,3.98.41,7.97.63,11.97.78-5.5,1.63-11.54,1.52-17.21,1.65,2.73,2.06,6.84,5.65,9.42,7.89,23.83,20.54,43.92,47.28,48.66,78.98,1.73,9.95,2.12,21.42,2.48,31.61.3,7.81.88,16.63,4.5,23.78-.47-.58-.94-1.16-1.38-1.75-2.19-2.97-4.18-6.22-5.15-9.79Z"/>
          <path d="m322.76,345.78l-.21.98c.24-.36.4-.42.56-.4-.15-.04-.28-.16-.35-.58Z"/>
          <path d="m323.22,346.38s-.07-.02-.11-.02c.04.01.07.02.11.02Z"/>
          <path d="m404.97,615.6c-1.71-2.68-3.36-5.41-5.09-8.07,1.59,2.76,3.09,5.56,4.66,8.33,1.19,2,2.32,4.07,3.85,5.82-2.23-.99-4.38-2.2-6.41-3.52,2.04,3.83,3.76,8.12,6.78,11.31l-7.45-2.26,9.19,3.83,2.95,1.23s-2.47-2.09-2.48-2.1c-3.05-2.41-4.77-5.93-6.51-9.35.72.4,1.44.78,2.17,1.14,2.14,1.09,5.25,2.12,7.53,2.94,0,0-3.23-2.21-3.23-2.21-2.57-1.69-4.28-4.56-5.98-7.11Z"/>
          <path d="m413.46,639.64c1.96,1.03,3.84,2.21,5.52,3.62-2.45,1.78-5.01,3.58-7.34,5.6-.07,0-.12,0-.12,0,0,.04,0,.08-.01.11-2.52,2.22-4.74,4.71-6.23,7.75,1.57-2.82,3.74-5.07,6.17-7.06-.89,8.34-6.14,22.09-13.49,26.02,7.81-3.85,13.71-18.47,14.56-26.81,0,0-.03,0-.07,0,2.62-2,5.48-3.75,8.2-5.56-7.71-6.59-18.63-7.87-27.26-12.75,6,3.75,13.86,5.7,20.07,9.07Z"/>
          <path d="m316.72,682.78c1.15.13,2.3.37,3.42.71,1.61.48,3.18,1.11,4.67,1.92-3.33-2.27-7.24-3.64-11.27-3.97,3.53,2.73,7.89,6.4,11.34,9.31,3.24,2.81,6.57,5.54,9.48,8.7-5.3-5.94-11.64-11.36-17.63-16.67Z"/>
          <path d="m395.55,716.49c.34,2.74.9,5.62,2.77,7.81.66-6.68,1.02-13.63,1.79-20.29-.97,5.75-1.67,11.84-2.48,17.65-.98-1.55-1.59-3.42-2.08-5.17Z"/>
          <path d="m321.49,458.82s0,0,0,0h0c.5-1.27,1.2-2.49,2.04-3.61.84-1.12,1.81-2.17,2.9-3.08-1.39.93-2.67,2.03-3.77,3.3.96-3.18,1.53-6.45,1.61-9.78-.44,4.41-1.77,8.78-3.69,12.75h0s0,0,0,0l.91.42Z"/>
          <path d="m256.25,348.18c8.27.54,16.53-1.47,24.34-4.01-6.36,1.87-12.92,3.15-19.54,3.32-2.83.09-5.67-.35-8.46-.67,3.29,2.5,7.02,4.53,11.02,5.55,10.19,2.63,20.78.51,30.9-1.4-12.56,2.09-27.05,4.54-38.26-2.79Z"/>
          <path d="m254.02,331.78c8.91-.9,17.92-1.11,26.81-.02-2.57-.44-5.17-.69-7.77-.89-7.82-.56-15.68-.36-23.48.39,0,0,.07,1,.07,1,5.52,0,10.97,2.03,16.08,4.04,5.18,2.15,10.24,4.67,14.86,7.85-4.54-3.33-9.54-6.01-14.67-8.31-3.86-1.64-7.78-3.27-11.91-4.07Z"/>
          <path d="m296.91,368.49c-4.69.2-8.88-2.5-12.65-5.14,1.43.06,2.84.02,4.25-.06,2.01-.11,4.01-.3,6-.56-2,.09-4.01.12-6.01.06-2.7-.04-5.44-.4-8.06-.97,2.67,2.06,5.68,3.81,8.75,5.16,2.42,1,5.07,1.94,7.71,1.51Z"/>
          <path d="m98.09,515.23c5.64,5.69,10.54,12.1,13.4,19.58,4.84,12.79,1.79,26.51-.89,39.48-2.24,10.67-4.27,21.57-4.6,32.62-.24,6.87.12,13.83,1,20.66.25,2.04.65,4.06.96,6.13.3,2.43,1.69,5.14,2.83,7.24.37-.73,1.03-1.76,1.28-2.94.13-.55.17-1.17.2-1.56,0,0,.09-1.02.09-1.02,1.07-15.96,14-26.96,24.2-37.92,17.61-18.3,32.78-38.84,46.62-60.11.28-.42.62-.96.99-1.54-.67,5.59-1.22,11.18-1.85,16.73-1.06,7.29-1.4,15.32-5.58,21.54-.04.06-.08.12-.12.18,0,0,2.42,1.76,2.42,1.76.03-.04.05-.08.07-.11,0,0,0,0,0,0,.01-.03.03-.05.04-.08.88-1.27,1.61-2.61,2.21-3.99,3.49-6.39,6.82-13.04,9.57-19.66,20.09-46.19,26.13-113.92-23.69-143.21C94.99,369.59,26.62,330.97,22.41,239.07l-3,.04c-.19,15.06-.39,30.14-.3,45.23.03,40.11,3.11,81.97,20.69,118.46-6.73-8.03-13.41-16.09-19.48-24.62-2.92-4.19-5.72-8.52-7.61-13.07,0,0-2.97-6.72-2.97-6.72-.27,32.79,3.05,67.25,21.33,95.43,16.41,25.95,44.02,43.31,67.03,61.41ZM12.82,371.98c4.09,7.3,9.34,13.76,14.48,20.35,6.49,8.1,13.23,15.96,19.81,23.91,0,0,2.45-1.72,2.45-1.72-2.9-4.62-5.96-9.65-8.41-14.59-21.05-41.88-21.12-89.51-19.6-135.75,1.53,9.34,3.9,18.54,7.27,27.38,22.24,60.57,82.69,92.61,136.72,120.44,46.9,25.79,45.36,90.01,26.85,133.65-2.48,5.86-5.29,11.62-8.45,17.16.57-3.3.91-6.65,1.38-9.89.89-7.78,1.59-15.52,2.69-23.19,0,0,1.09-7.61,1.09-7.61-14.99,26.72-32.12,52.4-53.7,74.23-9.97,10.48-21.66,20.29-25.08,34.65-.25-1.27-.51-2.55-.68-3.78-1.02-6.66-1.59-13.49-1.44-20.24.18-10.86,1.95-21.66,4.1-32.35,3.03-14.46,6.05-30.33-1.01-44.11-2.99-6.15-7.31-11.56-12.09-16.41-11.9-9.43-24.31-18.21-35.99-27.91-32.15-25.81-47.09-56.99-49.76-97.92-.43-5.43-.58-10.87-.62-16.31Z"/>
          <path d="m155.67,356.91c1.57.56,3.98,1.26,5.6,1.72l2.86.66s1.43.32,1.43.32c1.8.48,4.26.35,5.84.18-2.13-6.39-5.88-12.3-8.58-18.49-10.51-22.7-17.1-49.52-7.89-73.74,21.3-53.85,98.45-64.95,123.08-116.46,6.76-14.16,7.76-30.65,4.73-45.93-1.68,7.65-3.15,16-6.13,23.26-3.79,9.92-9.9,19.87-19.81,24.6-15.21,6.97-32.23,1.1-47.48-2.82-10.43-2.83-20.97-5.58-31.86-6.7-48.66-5.79-79.58,35.67-99.08,74.5-10.77,30.87-4.12,65.35,15.09,91.52,15.45,21.42,37.22,38.62,62.21,47.37Zm-77.37-114.55c.51-7.56,2-15.19,4.17-22.37,11.82-23.97,26.29-48.17,48.8-63.48,24.68-16.48,50.74-12.6,77.75-5.13,15.54,3.79,32.75,9.75,48.24,2.61,12.85-6.3,19.59-19.55,24.22-32.7.05,3.65-.13,7.3-.62,10.92-8.48,58.64-86.53,73.39-118.09,117.73-16.33,22.13-16.78,48.78-8.84,74.25,2.81,9.22,6.46,18.14,10.63,26.81,1.12,2.65,2.65,4.63,4.44,6.98-1.14-.79-1.39-1.23-2.6-1.46-.86-.26-3.19-.84-4.06-1.13-46.23-15.06-87.87-62.55-84.03-113.04Z"/>
          <path d="m241.49,204.87c-2.64,2.72-5.05,6.32-7.08,9.32,11.33-.76,23.21-3.13,34.52-4.85,18.17-2.72,36.92-5.15,55.22-4.85,7.36.13,14.69.76,21.91,2.09,14.55,2.63,28.78,7.9,43.49,10.1,59.34,9.68,128.51-20.23,141.45-83.35,1.39-7.44,1.89-15.12.68-22.71,0,0-1.28-7.99-1.28-7.99-1.64,7.33-2.91,15.79-5.68,22.71-5.05,14.32-16.67,20.26-29.84,24.66,3.04-3.89,5.75-8.02,8.22-12.3,21.62-37.51,32.75-89.39,4.66-126.48l-3.09-3.98-5.62-7.23c3.49,9.99,7.71,20.52,9.6,30.91,8.31,40.25-18.86,50.98-51.61,60.92-37.41,10.64-75.51,19.94-110.8,36.77-33.68,15.6-64.66,36.94-91.38,62.7-4.38,4.3-9.2,9.12-13.36,13.57Zm45.58-38.79c30.87-23.75,66.25-41.1,103.16-53.27,29.38-10.24,60.29-15.74,89.25-27.19,10.61-4.49,21.4-10.61,27.26-20.92,8.54-15.32,4.66-33.68.14-50.11,2.53,3.3,4.8,6.79,6.75,10.46,18.47,35.32,7.07,78.94-12.52,111.42-3.4,5.5-7.25,10.82-11.74,15.45,0,0-5.37,5.72-5.38,5.73,25.52-12.27,36.78-13.54,45.29-38.68.22,18.28-7.33,36.41-18.09,50.98-32.37,42.74-93.3,53.88-142.77,38.73-7.18-1.91-14.41-3.87-21.81-5.2-22.19-4.01-44.99-1.68-67.1,1.24-8.56,1.21-19.17,2.88-27.6,4.31-5.2.85-9.62,2.26-14.91,3.69,2.44-1.99,4.59-3.59,6.48-5.96,2.96-3.2,5.84-6.49,8.9-9.6,10.72-11.22,22.42-21.57,34.67-31.07Z"/>
          <path d="m293.78,381.58c-1.23,1.82-2.38,3.69-3.36,5.61h0c1-1.94,2.14-3.8,3.36-5.61Z"/>
          <polygon points="318.5 355.3 318.5 355.3 318.5 355.3 318.5 355.3"/>
          <path d="m293.78,381.58c.77-1.15,1.57-2.28,2.4-3.38,2.23-2.82,4.53-5.62,6.92-8.34-.03.04-.07.07-.1.11-3.26,3.69-6.47,7.51-9.22,11.61Z"/>
          <path d="m303.1,369.87c2.31-2.53,4.66-5.06,7.11-7.47-2.48,2.38-4.84,4.89-7.11,7.47Z"/>
          <path d="m310.2,362.39c2.63-2.53,5.37-4.92,8.29-7.09-2.97,2.12-5.69,4.54-8.29,7.09Z"/>
          <path d="m350.82,451.65c-.41-.81-.78-1.66-1.1-2.52.41,2.25,1.01,4.5,2.45,6.38.41-2.62.86-5.27,1.63-7.82-.83,1.76-1.49,3.6-2.1,5.45-.32-.46-.61-.97-.87-1.49Z"/>
          <path d="m419.79,406.77c.15,2.45.93,4.88,2.56,6.8.27-4.13.85-8.35,2.48-12.2-1.6,3.01-2.52,6.32-3.17,9.67-.91-1.24-1.48-2.79-1.87-4.27Z"/>
          <path d="m393.55,473.68c1.61-.91,3.04-2.07,4.53-3.2-2.07,1.19-4.27,2.52-6.58,3.11l-3.25,1.16c2.27-.11,10.99-.55,13.42-.67l-8.13-.4Z"/>
        </g>
      </g>
    </g>
  </g>
</svg>